# xmcd CD database file
#
# Track frame offsets:
#	150
#	19568
#	40133
#	51195
#	61169
#	89584
#	109484
#	128736
#	147180
#	167735
#	185890
#	207653
#
# Disc length: 2975 seconds
#
# Revision: 0
# Processed by: cddbd v1.5.2PL0 Copyright (c) Steve Scherf et al.
# Submitted via: CDex 1.77
#
DISCID=b10b9d0c
DTITLE=Ludovic Beier - The Accordina Sessions
DYEAR=2018
DGENRE=Jazz
TTITLE0=A House Built In Paradise
TTITLE1=The Loveliest Day in My Life
TTITLE2=Feel Like Makin' Love
TTITLE3=Over The Rainbow
TTITLE4=Little Dreams
TTITLE5=Cool Times
TTITLE6=You Can't Go Home Again
TTITLE7=On the Funky Side
TTITLE8=Breakfast In New York
TTITLE9=Vamp
TTITLE10=Marcel
TTITLE11=A House Built In Paradise (unpugged version
EXTD=YEAR: 2018
EXTT0=
EXTT1=
EXTT2=
EXTT3=
EXTT4=
EXTT5=
EXTT6=
EXTT7=
EXTT8=
EXTT9=
EXTT10=
EXTT11=
PLAYORDER=
